name rise44.9368peak50.754fall52.0217.mot
datacolumns 19
datarows 32
range 18.12326500000000 18.17493300000000
endheader
time	ground_force1_vx	ground_force1_vy	ground_force1_vz	ground_force1_px	ground_force1_py	ground_force1_pz	ground_force2_vx	ground_force2_vy	ground_force2_vz	ground_force2_px	ground_force2_py	ground_force2_pz	ground_torque1_x	ground_torque1_y	ground_torque1_z	ground_torque2_x	ground_torque2_y	ground_torque2_z	
18.12326500000000	-4.90809600000000	44.01163400000000	-7.90925000000000	0.31225800000000	0.00000000000000	0.14870500000000	-60.80745200000000	777.76392299999998	-65.98222100000000	0.10066400000000	0.00000000000000	-0.06797400000000	0.00000000000000	-4.65569600000000	0.00000000000000	0.00000000000000	-20.31240100000000	0.00000000000000	
18.12493600000000	-5.30005500000000	51.81727500000000	-8.84575800000000	0.31633500000000	0.00000000000000	0.14993000000000	-61.12968800000000	774.91046500000004	-65.66757500000000	0.09994500000000	0.00000000000000	-0.06793200000000	0.00000000000000	-5.29345600000000	0.00000000000000	0.00000000000000	-20.18584900000000	0.00000000000000	
18.12659900000000	-5.57361300000000	59.78270500000000	-9.67807600000000	0.31997200000000	0.00000000000000	0.15102100000000	-61.43600000000000	771.90360899999996	-65.32095300000000	0.09923700000000	0.00000000000000	-0.06788600000000	0.00000000000000	-5.88951900000000	0.00000000000000	0.00000000000000	-20.05531800000000	0.00000000000000	
18.12826400000000	-5.71386600000000	67.81035000000000	-10.38464600000000	0.32324900000000	0.00000000000000	0.15199900000000	-61.72597500000000	768.74248200000000	-64.94209800000000	0.09854000000000	0.00000000000000	-0.06783500000000	0.00000000000000	-6.43078900000000	0.00000000000000	0.00000000000000	-19.92084800000000	0.00000000000000	
18.12993200000000	-5.71188100000000	75.82496399999999	-10.95129000000000	0.32622900000000	0.00000000000000	0.15288200000000	-61.99922900000000	765.42633400000000	-64.53081100000000	0.09785600000000	0.00000000000000	-0.06777900000000	0.00000000000000	-6.90820200000000	0.00000000000000	0.00000000000000	-19.78248900000000	0.00000000000000	
18.13160000000000	-5.56457800000000	83.77615000000000	-11.37127300000000	0.32896200000000	0.00000000000000	0.15368500000000	-62.25540700000000	761.95453599999996	-64.08695800000000	0.09718600000000	0.00000000000000	-0.06771900000000	0.00000000000000	-7.31686200000000	0.00000000000000	0.00000000000000	-19.64029500000000	0.00000000000000	
18.13327100000000	-5.27415900000000	91.63842000000000	-11.64474200000000	0.33148800000000	0.00000000000000	0.15442000000000	-62.49418700000000	758.32658400000003	-63.61046600000000	0.09653100000000	0.00000000000000	-0.06765400000000	0.00000000000000	-7.65580100000000	0.00000000000000	0.00000000000000	-19.49432400000000	0.00000000000000	
18.13493900000000	-4.84719900000000	99.40917600000000	-11.77771100000000	0.33383800000000	0.00000000000000	0.15509400000000	-62.71527600000000	754.54209500000002	-63.10132800000000	0.09589100000000	0.00000000000000	-0.06758400000000	0.00000000000000	-7.92746400000000	0.00000000000000	0.00000000000000	-19.34464400000000	0.00000000000000	
18.13660200000000	-4.29355100000000	107.10516400000000	-11.78072700000000	0.33604000000000	0.00000000000000	0.15571700000000	-62.91841200000000	750.60081400000001	-62.55960100000000	0.09526900000000	0.00000000000000	-0.06750800000000	0.00000000000000	-8.13700400000000	0.00000000000000	0.00000000000000	-19.19132500000000	0.00000000000000	
18.13827200000000	-3.62516900000000	114.75794500000001	-11.66740700000000	0.33811400000000	0.00000000000000	0.15629500000000	-63.10336600000000	746.50260700000001	-61.98541000000000	0.09466300000000	0.00000000000000	-0.06742700000000	0.00000000000000	-8.29146600000000	0.00000000000000	0.00000000000000	-19.03444300000000	0.00000000000000	
18.13993200000000	-2.85497500000000	122.40892900000000	-11.45297900000000	0.34007900000000	0.00000000000000	0.15683200000000	-63.26993700000000	742.24746800000003	-61.37894700000000	0.09407700000000	0.00000000000000	-0.06734000000000	0.00000000000000	-8.39896700000000	0.00000000000000	0.00000000000000	-18.87407800000000	0.00000000000000	
18.14160400000000	-1.99584200000000	130.10446500000000	-11.15294300000000	0.34194800000000	0.00000000000000	0.15733300000000	-63.41795400000000	737.83551199999999	-60.74047000000000	0.09351100000000	0.00000000000000	-0.06724800000000	0.00000000000000	-8.46792200000000	0.00000000000000	0.00000000000000	-18.71031300000000	0.00000000000000	
18.14326500000000	-1.05976700000000	137.89135600000000	-10.78194500000000	0.34373500000000	0.00000000000000	0.15780200000000	-63.54727600000000	733.26698199999998	-60.07030700000000	0.09296600000000	0.00000000000000	-0.06714900000000	0.00000000000000	-8.50638300000000	0.00000000000000	0.00000000000000	-18.54323800000000	0.00000000000000	
18.14493300000000	-0.05725300000000	145.81308100000001	-10.35291200000000	0.34545000000000	0.00000000000000	0.15824300000000	-63.65778800000000	728.54224399999998	-59.36885500000000	0.09244300000000	0.00000000000000	-0.06704500000000	0.00000000000000	-8.52151400000000	0.00000000000000	0.00000000000000	-18.37294100000000	0.00000000000000	
18.14659900000000	1.00307300000000	153.90690000000001	-9.87646400000000	0.34710000000000	0.00000000000000	0.15865700000000	-63.74940300000000	723.66178400000001	-58.63657700000000	0.09194300000000	0.00000000000000	-0.06693300000000	0.00000000000000	-8.51922500000000	0.00000000000000	0.00000000000000	-18.19951600000000	0.00000000000000	
18.14827000000000	2.11463200000000	162.20188800000000	-9.36061800000000	0.34869400000000	0.00000000000000	0.15904800000000	-63.82205700000000	718.62621300000001	-57.87400700000000	0.09146800000000	0.00000000000000	-0.06681600000000	0.00000000000000	-8.50396300000000	0.00000000000000	0.00000000000000	-18.02305800000000	0.00000000000000	
18.14993700000000	3.27287600000000	170.71790600000000	-8.81072800000000	0.35023700000000	0.00000000000000	0.15941800000000	-63.87570900000000	713.43626300000005	-57.08174500000000	0.09101900000000	0.00000000000000	-0.06669100000000	0.00000000000000	-8.47864900000000	0.00000000000000	0.00000000000000	-17.84366200000000	0.00000000000000	
18.15160600000000	4.47510700000000	179.46539200000001	-8.22964700000000	0.35173400000000	0.00000000000000	0.15976800000000	-63.91034000000000	708.09278600000005	-56.26045800000000	0.09059600000000	0.00000000000000	-0.06656000000000	0.00000000000000	-8.44474500000000	0.00000000000000	0.00000000000000	-17.66142400000000	0.00000000000000	
18.15327200000000	5.72019000000000	188.44585100000000	-7.61804400000000	0.35318900000000	0.00000000000000	0.16010000000000	-63.92594600000000	702.59675400000003	-55.41088200000000	0.09020200000000	0.00000000000000	-0.06642100000000	0.00000000000000	-8.40240500000000	0.00000000000000	0.00000000000000	-17.47644100000000	0.00000000000000	
18.15493900000000	7.00819400000000	197.65287799999999	-6.97482900000000	0.35460500000000	0.00000000000000	0.16041500000000	-63.92254400000000	696.94925699999999	-54.53381700000000	0.08983600000000	0.00000000000000	-0.06627500000000	0.00000000000000	-8.35070900000000	0.00000000000000	0.00000000000000	-17.28880800000000	0.00000000000000	
18.15660200000000	8.33999700000000	207.07352700000001	-6.29763700000000	0.35598600000000	0.00000000000000	0.16071500000000	-63.90015900000000	691.15150500000004	-53.63012700000000	0.08950100000000	0.00000000000000	-0.06612200000000	0.00000000000000	-8.28792900000000	0.00000000000000	0.00000000000000	-17.09861900000000	0.00000000000000	
18.15827100000000	9.71690100000000	216.68988400000001	-5.58331500000000	0.35733400000000	0.00000000000000	0.16100000000000	-63.85883200000000	685.20482800000002	-52.70073900000000	0.08919600000000	0.00000000000000	-0.06596100000000	0.00000000000000	-8.21180300000000	0.00000000000000	0.00000000000000	-16.90596700000000	0.00000000000000	
18.15993800000000	11.14027200000000	226.48066200000000	-4.82839300000000	0.35865000000000	0.00000000000000	0.16127300000000	-63.79860900000000	679.11067200000002	-51.74664100000000	0.08892400000000	0.00000000000000	-0.06579300000000	0.00000000000000	-8.11980900000000	0.00000000000000	0.00000000000000	-16.71094000000000	0.00000000000000	
18.16160500000000	12.61124100000000	236.42271500000001	-4.02948000000000	0.35993500000000	0.00000000000000	0.16153300000000	-63.71954500000000	672.87060699999995	-50.76887900000000	0.08868500000000	0.00000000000000	-0.06561600000000	0.00000000000000	-8.00940000000000	0.00000000000000	0.00000000000000	-16.51362400000000	0.00000000000000	
18.16327200000000	14.13046100000000	246.49237800000000	-3.18360300000000	0.36119100000000	0.00000000000000	0.16178100000000	-63.62169600000000	666.48632499999997	-49.76855600000000	0.08848100000000	0.00000000000000	-0.06543200000000	0.00000000000000	-7.87820400000000	0.00000000000000	0.00000000000000	-16.31410200000000	0.00000000000000	
18.16493600000000	15.69794300000000	256.66655200000002	-2.28844600000000	0.36241800000000	0.00000000000000	0.16201900000000	-63.50511900000000	659.95963900000004	-48.74682900000000	0.08831100000000	0.00000000000000	-0.06523900000000	0.00000000000000	-7.72417700000000	0.00000000000000	0.00000000000000	-16.11245300000000	0.00000000000000	
18.16660100000000	17.31295600000000	266.92352899999997	-1.34250800000000	0.36361700000000	0.00000000000000	0.16224600000000	-63.36987200000000	653.29249100000004	-47.70490500000000	0.08817800000000	0.00000000000000	-0.06503800000000	0.00000000000000	-7.54570300000000	0.00000000000000	0.00000000000000	-15.90874900000000	0.00000000000000	
18.16826700000000	18.97399200000000	277.24352299999998	-0.34517700000000	0.36478800000000	0.00000000000000	0.16246400000000	-63.21600600000000	646.48694799999998	-46.64404100000000	0.08808200000000	0.00000000000000	-0.06482900000000	0.00000000000000	-7.34165200000000	0.00000000000000	0.00000000000000	-15.70306000000000	0.00000000000000	
18.16993200000000	20.67878800000000	287.60895599999998	0.70326600000000	0.36593100000000	0.00000000000000	0.16267300000000	-63.04356700000000	639.54520900000000	-45.56553600000000	0.08802400000000	0.00000000000000	-0.06461100000000	0.00000000000000	-7.11139100000000	0.00000000000000	0.00000000000000	-15.49545000000000	0.00000000000000	
18.17161000000000	22.42438600000000	298.00450300000000	1.80170200000000	0.36704500000000	0.00000000000000	0.16287300000000	-62.85259100000000	632.46960100000001	-44.47073300000000	0.08800400000000	0.00000000000000	-0.06438500000000	0.00000000000000	-6.85476500000000	0.00000000000000	0.00000000000000	-15.28597700000000	0.00000000000000	
18.17326500000000	24.20723400000000	308.41696300000001	2.94827500000000	0.36813100000000	0.00000000000000	0.16306500000000	-62.64310600000000	625.26258399999995	-43.36101100000000	0.08802300000000	0.00000000000000	-0.06415000000000	0.00000000000000	-6.57204200000000	0.00000000000000	0.00000000000000	-15.07469300000000	0.00000000000000	
18.17493300000000	26.02328800000000	318.83498700000001	4.14051100000000	0.36918700000000	0.00000000000000	0.16324900000000	-62.41512400000000	617.92674999999997	-42.23778500000000	0.08808200000000	0.00000000000000	-0.06390600000000	0.00000000000000	-6.26385700000000	0.00000000000000	0.00000000000000	-14.86164700000000	0.00000000000000	
